# AST/ASF file generated using VICON BodyLanguage
# -----------------------------------------------
:version 1.10
:name VICON
:units
  mass 1.0
  length 0.45
  angle deg
:documentation
   .ast/.asf automatically generated from VICON data using
   VICON BodyBuilder and BodyLanguage model FoxedUp or BRILLIANT.MOD
:root
   order TX TY TZ RX RY RZ
   axis XYZ
   position 0 0 0  
   orientation 0 0 0 
:bonedata
  begin
     id 1 
     name lhipjoint
     direction 0.567149 -0.783011 0.255413 
     length 2.28399 
     axis 0 0 0  XYZ
  end
  begin
     id 2 
     name lfemur
     direction 0.34202 -0.939693 0  
     length 7.34031  
     axis 0 0 20  XYZ
    dof rx ry rz
    limits (-160.0 20.0)
           (-70.0 70.0)
           (-60.0 70.0)
  end
  begin
     id 3 
     name ltibia
     direction 0.34202 -0.939693 0   
     length 6.9833   
     axis 0 0 20   XYZ
    dof rx
    limits (-10.0 170.0)
  end
  begin
     id 4 
     name lfoot
     direction 0.136498 -0.375025 0.91691   
     length 2.33665   
     axis -90 7.62852e-016 20   XYZ
    dof rx rz
    limits (-45.0 90.0)
           (-70.0 20.0)
  end
  begin
     id 5 
     name ltoes
     direction 1.5367e-011 -4.21617e-011 1   
     length 1.15039   
     axis -90 7.62852e-016 20   XYZ
    dof rx
    limits (-90.0 20.0)
  end
  begin
     id 6 
     name rhipjoint
     direction -0.602854 -0.758518 0.247423   
     length 2.35775  
     axis 0 0 0  XYZ 
  end
  begin
     id 7 
     name rfemur
     direction -0.34202 -0.939693 0   
     length 7.43932   
     axis 0 0 -20   XYZ
    dof rx ry rz
    limits (-160.0 20.0)
           (-70.0 70.0)
           (-70.0 60.0)
  end
  begin
     id 8 
     name rtibia
     direction -0.34202 -0.939693 0   
     length 7.11893   
     axis 0 0 -20   XYZ
    dof rx
    limits (-10.0 170.0)
 end
 begin
     id 9 
     name rfoot
     direction -0.131771 -0.362037 0.922803   
     length 2.53019  
     axis -90 -7.62852e-016 -20   XYZ
    dof rx rz
    limits (-45.0 90.0)
           (-20.0 70.0)
  end
  begin
     id 10 
     name rtoes
     direction -1.53733e-011 -4.21932e-011 1   
     length 1.24596   
     axis -90 -7.62852e-016 -20   XYZ
    dof rx
    limits (-90.0 20.0)
  end
  begin
     id 11 
     name lowerback
     direction 0.0235427 0.999023 -0.0374125   
     length 2.21768   
     axis 0 0 0   XYZ
    dof rx ry rz
    limits (-20.0 45.0)
           (-30.0 30.0)
           (-30.0 30.0)
  end
  begin
     id 12 
     name upperback
     direction 0.0302156 0.996818 -0.073759   
     length 2.20352   
     axis 0 0 0   XYZ
    dof rx ry rz
    limits (-20.0 45.0)
           (-30.0 30.0)
           (-30.0 30.0)
  end
  begin
     id 13 
     name thorax
     direction 0.0187169 0.998235 -0.0563532   
     length 2.22103   
     axis 0 0 0   XYZ
    dof rx ry rz
    limits (-20.0 45.0)
           (-30.0 30.0)
           (-30.0 30.0)
  end
  begin
     id 14 
     name lowerneck
     direction -0.119528 0.987423 0.103481   
     length 1.72948   
     axis 0 0 0   XYZ
    dof rx ry rz
    limits (-20.0 45.0)
           (-30.0 30.0)
           (-30.0 30.0)
  end
  begin
     id 15 
     name upperneck
     direction 0.248049 0.963095 -0.104496   
     length 1.74979   
     axis 0 0 0   XYZ
    dof rx ry rz
    limits (-20.0 45.0)
           (-30.0 30.0)
           (-30.0 30.0)
  end
  begin
     id 16
     name head
     direction 0.0903589 0.994284 -0.056876  
     length 1.78268  
     axis 0 0 0   XYZ
    dof rx ry rz
    limits (-20.0 45.0)
           (-30.0 30.0)
           (-30.0 30.0)
  end
  begin
     id 17 
     name lclavicle
     direction 0.946008 0.242039 -0.215608  
     length 3.80783  
     axis 0 0 0   XYZ
    dof ry rz
    limits (-20.0 10.0)
           (0.0 20.0)
  end
  begin
     id 18 
     name lhumerus
     direction 1 -4.48991e-011 -2.25695e-027   
     length 4.83125   
     axis 180 -30 -90   XYZ
    dof rx ry rz
    limits (-60.0 90.0)
           (-90.0 90.0)
           (-90.0 90.0)
  end
  begin
     id 19
     name lradius
     direction 0.999991 0.00366712 -0.00211721   
     length 3.00391   
     axis 180 -30 -90   XYZ
    dof rx
    limits (-10.0 170.0)
  end
  begin
     id 20
     name lwrist
     direction 0.999991 0.00393016 -0.00141978   
     length 1.50195   
     axis -1.00488e-014 90 90   XYZ
    dof ry
    limits (-180.0 0.0)
 end
  begin
     id 21 
     name lhand
     direction 1 -4.49123e-011 2.72098e-026   
     length 1.2717   
     axis -1.73687e-014 90 90   XYZ
    dof rx rz
    limits (-90.0 90.0)
           (-45.0 45.0)
  end
  begin
     id 22 
     name lfingers
     direction 1 -4.48678e-011 5.4479e-026   
     length 1.02528   
     axis -3.47372e-014 90 90   XYZ
    dof rx
    limits (0.0 90.0)
  end
  begin
     id 23
     name lthumb
     direction 0.707107 -6.34851e-011 0.707107   
     length 1.4721   
     axis -90 45 -1.62303e-014   XYZ
    dof rx rz
    limits (-45.0 45.0)
           (-45.0 45.0)
  end
  begin
     id 24 
     name rclavicle
     direction -0.981723 0.189447 -0.0181673   
     length 3.74989  
     axis 0 0 0   XYZ 
    dof ry rz
    limits (-10.0 20.0)
           (-20.0 0.0)
  end
  begin
     id 25 
     name rhumerus
     direction -1 -4.48985e-011 2.38206e-027  
     length 4.61118   
     axis 180 30 90   XYZ
    dof rx ry rz
    limits (-90.0 60.0)
           (-90.0 90.0)
           (-90.0 90.0)
  end
  begin
     id 26 
     name rradius
     direction -1 -4.48977e-011 7.41019e-027   
     length 2.91491   
     axis 180 30 90   XYZ
    dof rx
    limits (-10.0 170.0)
  end
  begin
     id 27 
     name rwrist
     direction -1 -4.48549e-011 1.3624e-026   
     length 1.45745   
     axis -1.00488e-014 -90 -90   XYZ
    dof ry
    limits (-180.0 0.0)
  end
  begin
     id 28
     name rhand
     direction -1 -4.49107e-011 2.72109e-026   
     length 1.30769   
     axis -1.73687e-014 -90 -90   XYZ
    dof rx rz
    limits (-90.0 90.0)
           (-45.0 45.0)
  end
  begin
     id 29
     name rfingers
     direction -1 -4.48919e-011 5.44468e-026   
     length 1.05429   
     axis -3.47372e-014 -90 -90   XYZ
    dof rx
    limits (0.0 90.0)
  end
  begin
     id 30
     name rthumb
     direction -0.707107 -6.35315e-011 0.707107   
     length 1.51376   
     axis -90 -45 1.62303e-014   XYZ
    dof rx rz
    limits (-45.0 45.0)
           (-45.0 45.0)
  end
:hierarchy
  begin
    root lhipjoint rhipjoint lowerback
    lhipjoint lfemur
    lfemur ltibia
    ltibia lfoot
    lfoot ltoes
    rhipjoint rfemur
    rfemur rtibia
    rtibia rfoot
    rfoot rtoes
    lowerback upperback
    upperback thorax
    thorax lowerneck lclavicle rclavicle
    lowerneck upperneck
    upperneck head
    lclavicle lhumerus
    lhumerus lradius
    lradius lwrist
    lwrist lhand lthumb
    lhand lfingers
    rclavicle rhumerus
    rhumerus rradius
    rradius rwrist
    rwrist rhand rthumb
    rhand rfingers
  end

#!OML:ASF X:\für Bonn\!DataBase\2005_08_11_Bastian_Final\c3d\Bastian.ASF
:FULLY-SPECIFIED
:DEGREES
1
root -1.80671 17.4259 -5.13096 169.841 -9.65385 -172.33
lowerback 14.6689 -4.20169 2.90754
upperback 6.01647 -6.10039 3.82862
thorax -1.66475 -3.48459 3.34833
lowerneck -5.60197 -4.73097 -4.49806
upperneck -3.82093 -5.7686 6.5408
head 0.105531 -2.71201 2.73477
rclavicle 7.83212e-014 -5.02925e-014
rhumerus 143.737 137.101 84.4697
rradius 31.4462
rwrist -72.0204
rhand -48.7682 -16.909
rfingers 7.12502
rthumb -21.4064 -45.7465
lclavicle 7.83212e-014 -5.02925e-014
lhumerus -392.414 -33.8771 467.781
lradius 20.4037
lwrist 47.0253
lhand -41.7497 22.2688
lfingers 7.12502
lthumb -14.654 51.731
rfemur -14.4099 1.97582 28.1912
rtibia 33.2819
rfoot -4.00655 -3.46181
rtoes -6.14625
lfemur 31.885 -4.63806 -12.754
ltibia 7.31528e-014
lfoot -7.80848 -5.21953
ltoes -20.551
2
root -1.78829 17.4409 -5.16963 169.815 -9.65486 -172.484
lowerback 14.7492 -4.08606 2.84143
upperback 6.1007 -5.96644 3.77939
thorax -1.62251 -3.42245 3.31474
lowerneck -6.02089 -4.85076 -4.62644
upperneck -3.68022 -5.90664 6.58744
head 0.236117 -2.76826 2.75811
rclavicle -1.51573e-014 4.07509e-014
rhumerus 145.712 133.821 83.4093
rradius 32.1357
rwrist -73.0883
rhand -48.9141 -15.7814
rfingers 7.12502
rthumb -21.5465 -44.6029
lclavicle -1.51573e-014 4.07509e-014
lhumerus -392.029 -40.0105 470.546
lradius 22.1272
lwrist 48.9355
lhand -42.0329 22.4723
lfingers 7.12502
lthumb -14.9269 51.9144
rfemur -14.0444 2.23064 28.1302
rtibia 32.9168
rfoot -3.67696 -3.72936
rtoes -5.11653
lfemur 31.9697 -4.50717 -12.7821
ltibia -3.18055e-015
lfoot -7.1324 -5.25329
ltoes -21.6515
3
root -1.76846 17.4568 -5.20726 169.763 -9.64219 -172.609
lowerback 14.8392 -3.97266 2.81348
upperback 6.19594 -5.83222 3.71367
thorax -1.57893 -3.36004 3.24296
lowerneck -6.37849 -4.95723 -4.70809
upperneck -3.58077 -6.02822 6.63578
head 0.341064 -2.81764 2.77577
rclavicle -6.43565e-014 5.32743e-014
rhumerus 147.951 129.921 82.7906
rradius 33.0203
rwrist -74.6668
rhand -49.2654 -14.6821
rfingers 7.12502
rthumb -21.8839 -43.4645
lclavicle -6.43565e-014 5.32743e-014
lhumerus -391.701 -46.2021 472.605
lradius 24.2737
lwrist 50.7219
lhand -42.2471 22.4702
lfingers 7.12502
lthumb -15.1332 51.897
rfemur -13.6337 2.55342 28.1122
rtibia 32.5218
rfoot -3.42601 -4.06318
rtoes -4.24678
lfemur 32.0605 -4.37238 -12.7761
ltibia 3.81667e-014
lfoot -6.39797 -5.25663
ltoes -22.9352
4
root -1.75083 17.4753 -5.2444 169.762 -9.62981 -172.757
lowerback 14.8822 -3.87223 2.77232
upperback 6.26248 -5.71153 3.64688
thorax -1.53924 -3.30162 3.17667
lowerneck -6.66287 -5.04751 -4.80091
upperneck -3.46189 -6.13389 6.68791
head 0.439632 -2.86158 2.79864
rclavicle -4.37326e-015 -6.55989e-015
rhumerus 150.871 125.93 83.0713
rradius 33.8805
rwrist -76.0603
rhand -49.5722 -13.9773
rfingers 7.12502
rthumb -22.1785 -42.725
lclavicle -4.37326e-015 -6.55989e-015
lhumerus -391.151 -52.1244 473.896
lradius 26.7287
lwrist 52.1369
lhand -42.5802 22.364
lfingers 7.12502
lthumb -15.454 51.7662
rfemur -13.271 2.89548 28.0607
rtibia 32.1216
rfoot -3.2033 -4.39478
rtoes -3.3533
lfemur 32.0965 -4.2228 -12.7982
ltibia -6.36111e-014
lfoot -5.62157 -5.23848
ltoes -24.3099
5
root -1.73212 17.4934 -5.28151 169.785 -9.60902 -172.911
lowerback 14.8654 -3.76947 2.69992
upperback 6.33804 -5.59629 3.59564
thorax -1.45371 -3.24718 3.13861
lowerneck -6.98179 -5.1317 -4.91104
upperneck -3.30464 -6.23152 6.71292
head 0.555896 -2.90136 2.81463
rclavicle -4.27387e-015 3.10104e-014
rhumerus 154.822 122.119 84.6428
rradius 34.7854
rwrist -77.0861
rhand -49.8065 -13.7375
rfingers 7.12502
rthumb -22.4034 -42.4583
lclavicle -4.27387e-015 3.10104e-014
lhumerus -389.882 -57.5583 474.067
lradius 29.28
lwrist 52.9343
lhand -42.9416 22.0336
lfingers 7.12502
lthumb -15.8022 51.4087
rfemur -12.9283 3.24793 28.0054
rtibia 31.733
rfoot -3.05871 -4.71614
rtoes -2.85016
lfemur 32.1049 -4.06228 -12.8205
ltibia -4.77083e-014
lfoot -4.78264 -5.21932
ltoes -25.2801
6
root -1.7141 17.5109 -5.31795 169.796 -9.59108 -173.066
lowerback 14.8722 -3.66467 2.63007
upperback 6.39056 -5.47116 3.53226
thorax -1.40698 -3.18554 3.08874
lowerneck -7.21713 -5.21482 -5.00037
upperneck -3.14348 -6.33446 6.76063
head 0.659949 -2.94633 2.83601
rclavicle -8.52786e-014 1.09332e-014
rhumerus 160.084 119.068 87.7224
rradius 35.6448
rwrist -77.3603
rhand -49.8566 -14.0501
rfingers 7.12502
rthumb -22.4515 -42.7651
lclavicle -8.52786e-014 1.09332e-014
lhumerus -386.068 -60.8478 472.138
lradius 30.0943
lwrist 51.5602
lhand -42.7688 20.8327
lfingers 7.12502
lthumb -15.6357 50.2209
rfemur -12.5759 3.60366 27.9439
rtibia 31.3639
rfoot -2.97584 -5.03604
rtoes -2.13668
lfemur 29.0508 -3.81324 -12.8123
ltibia 6.28736
lfoot -7.10643 -5.51609
ltoes -26.5842
7
root -1.6954 17.527 -5.35261 169.837 -9.553 -173.196
lowerback 14.8663 -3.56862 2.57588
upperback 6.41291 -5.35038 3.4843
thorax -1.38507 -3.12426 3.0478
lowerneck -7.39545 -5.28501 -5.12074
upperneck -2.98667 -6.42158 6.80996
head 0.753499 -2.98506 2.86559
rclavicle 1.74931e-014 -2.20651e-014
rhumerus 166.755 117.485 92.1947
rradius 36.1603
rwrist -76.3605
rhand -49.5235 -14.796
rfingers 7.12502
rthumb -22.1317 -43.5493
lclavicle 1.74931e-014 -2.20651e-014
lhumerus -381.227 -63.9047 468.99
lradius 30.8318
lwrist 50.1842
lhand -42.7335 19.551
lfingers 7.12502
lthumb -15.6017 48.9418
rfemur -12.2926 3.94897 27.9168
rtibia 31.0232
rfoot -2.9065 -5.33579
rtoes -1.63788
lfemur 27.1588 -3.58242 -12.7757
ltibia 10.1011
lfoot -8.06677 -5.61295
ltoes -27.5131
8
root -1.67663 17.5419 -5.38371 169.925 -9.55183 -173.326
lowerback 14.8538 -3.49232 2.51059
upperback 6.38694 -5.24562 3.43271
thorax -1.40982 -3.06677 3.01405
lowerneck -7.49407 -5.33999 -5.21608
upperneck -2.80663 -6.49802 6.84673
head 0.838858 -3.02194 2.88833
rclavicle -3.64273e-014 4.1546e-014
rhumerus 174.024 117.031 97.3132
rradius 36.5114
rwrist -74.7146
rhand -48.9492 -15.5874
rfingers 7.12502
rthumb -21.5802 -44.405
lclavicle -3.64273e-014 4.1546e-014
lhumerus -375.131 -66.7706 464.331
lradius 31.6275
lwrist 49.0569
lhand -42.9162 18.384
lfingers 7.12502
lthumb -15.7777 47.7609
rfemur -12.0805 4.2169 27.8686
rtibia 30.7013
rfoot -2.90499 -5.58543
rtoes -1.191
lfemur 25.5329 -3.24511 -12.6753
ltibia 13.2179
lfoot -8.50045 -5.81521
ltoes -28.4446
9
root -1.65817 17.5577 -5.41378 170.062 -9.55118 -173.398
lowerback 14.7872 -3.4235 2.4838
upperback 6.34568 -5.14529 3.40979
thorax -1.42211 -3.01053 2.98578
lowerneck -7.58829 -5.38609 -5.28249
upperneck -2.62678 -6.56491 6.8571
head 0.920708 -3.05484 2.89733
rclavicle 3.50358e-014 -3.00165e-014
rhumerus 181.613 116.982 102.95
rradius 36.8804
rwrist -73.2503
rhand -48.2828 -16.0592
rfingers 7.12502
rthumb -20.9401 -44.9489
lclavicle 3.50358e-014 -3.00165e-014
lhumerus -367.1 -69.1855 457.589
lradius 32.4473
lwrist 47.9814
lhand -43.136 17.5121
lfingers 7.12502
lthumb -15.9893 46.8722
rfemur -11.936 4.4521 27.8815
rtibia 30.3793
rfoot -2.87728 -5.79834
rtoes -0.958988
lfemur 23.9698 -2.9403 -12.5267
ltibia 16.0921
lfoot -8.69265 -5.96611
ltoes -29.0844
10
root -1.63935 17.5738 -5.44285 170.123 -9.54308 -173.481
lowerback 14.8411 -3.35996 2.41129
upperback 6.28709 -5.05413 3.40759
thorax -1.51061 -2.96115 3.01747
lowerneck -7.64926 -5.42806 -5.40277
upperneck -2.39265 -6.63012 6.83943
head 1.01537 -3.08959 2.90713
rclavicle -8.15017e-015 -2.22639e-014
rhumerus 189.405 117.144 109.011
rradius 37.3787
rwrist -72.2924
rhand -47.7214 -16.1346
rfingers 7.12502
rthumb -20.4007 -45.0829
lclavicle -8.15017e-015 -2.22639e-014
lhumerus -356.772 -71.3511 448.291
lradius 33.4727
lwrist 47.3548
lhand -43.5851 17.0951
lfingers 7.12502
lthumb -16.4217 46.42
rfemur -11.7116 4.68832 27.8893
rtibia 30.0543
rfoot -2.84491 -6.00662
rtoes -0.661002
lfemur 22.5549 -2.63586 -12.4024
ltibia 18.8251
lfoot -8.79264 -6.04956
ltoes -29.8268
11
root -1.62095 17.5899 -5.47264 170.141 -9.55062 -173.553
lowerback 14.9426 -3.30615 2.36164
upperback 6.21795 -4.96829 3.37557
thorax -1.64001 -2.91234 3.01051
lowerneck -7.61795 -5.45726 -5.43926
upperneck -2.19817 -6.68689 6.83343
head 1.07775 -3.12231 2.9082
rclavicle -4.02539e-015 -2.44505e-014
rhumerus 196.843 117.945 114.762
rradius 37.9139
rwrist -71.3921
rhand -47.2116 -15.8293
rfingers 7.12502
rthumb -19.9107 -44.8294
lclavicle -4.02539e-015 -2.44505e-014
lhumerus -343.488 -73.0735 435.613
lradius 34.8036
lwrist 47.1093
lhand -44.1833 17.2717
lfingers 7.12502
lthumb -16.9977 46.548
rfemur -11.4215 4.89507 27.9164
rtibia 29.7149
rfoot -2.83538 -6.19157
rtoes -0.681535
lfemur 21.2253 -2.32181 -12.2626
ltibia 21.4488
lfoot -8.8998 -6.12512
ltoes -30.336
12
root -1.60175 17.6052 -5.50324 170.127 -9.58225 -173.627
lowerback 15.0491 -3.26228 2.29349
upperback 6.14752 -4.89847 3.34929
thorax -1.77093 -2.872 3.02258
lowerneck -7.50045 -5.47269 -5.53446
upperneck -2.00685 -6.72693 6.8491
head 1.12651 -3.14882 2.93019
rclavicle 2.80783e-014 -6.38099e-014
rhumerus 203.557 119.347 119.823
rradius 38.4235
rwrist -70.3947
rhand -46.6725 -15.2527
rfingers 7.12502
rthumb -19.3924 -44.3057
lclavicle 2.80783e-014 -6.38099e-014
lhumerus -328.223 -73.5459 420.687
lradius 36.2084
lwrist 46.7603
lhand -44.7349 17.7978
lfingers 7.12502
lthumb -17.5285 47.0276
rfemur -11.1044 5.0679 27.9414
rtibia 29.3773
rfoot -2.81144 -6.38467
rtoes -0.585904
lfemur 19.9698 -2.02608 -12.133
ltibia 23.9519
lfoot -8.96569 -6.17895
ltoes -30.4658
